PathFileType	4	(X/Y/Z)	C:\Git\powerlifing_model_clean\simulations\Test1\Session1\HC835B_STD_0001\marker_experimental.trc
DataRate	CameraRate	NumFrames	NumMarkers	Units	OrigDataRate	OrigDataStartFrame	OrigNumFrames
240.000000	240.000000	4	54	mm	240.000000	252	337
Frame#	Time	RPSI			LPSI			RASI			LASI			RGT			RTH1			RTH2			RTH3			RTH4			RLK			RMK			RSK1			RSK2			RSK3			RSK4			RLA			RMA			RCAL1			RCAL2			RCAL3			RST			RPT			RTN			RFMB			RSMB			RVMB			RFMH			RSMH			RVMH			RPM			LGT			LTH1			LTH2			LTH3			LTH4			LLK			LMK			LSK1			LSK2			LSK3			LSK4			LLA			LMA			LCAL1			LCAL2			LCAL3			LFMH			LVMH			RHJC			LHJC			RKJC			LKJC			RAJC			LAJC
		X1	Y1	Z1	X2	Y2	Z2	X3	Y3	Z3	X4	Y4	Z4	X5	Y5	Z5	X6	Y6	Z6	X7	Y7	Z7	X8	Y8	Z8	X9	Y9	Z9	X10	Y10	Z10	X11	Y11	Z11	X12	Y12	Z12	X13	Y13	Z13	X14	Y14	Z14	X15	Y15	Z15	X16	Y16	Z16	X17	Y17	Z17	X18	Y18	Z18	X19	Y19	Z19	X20	Y20	Z20	X21	Y21	Z21	X22	Y22	Z22	X23	Y23	Z23	X24	Y24	Z24	X25	Y25	Z25	X26	Y26	Z26	X27	Y27	Z27	X28	Y28	Z28	X29	Y29	Z29	X30	Y30	Z30	X31	Y31	Z31	X32	Y32	Z32	X33	Y33	Z33	X34	Y34	Z34	X35	Y35	Z35	X36	Y36	Z36	X37	Y37	Z37	X38	Y38	Z38	X39	Y39	Z39	X40	Y40	Z40	X41	Y41	Z41	X42	Y42	Z42	X43	Y43	Z43	X44	Y44	Z44	X45	Y45	Z45	X46	Y46	Z46	X47	Y47	Z47	X48	Y48	Z48	X49	Y49	Z49	X50	Y50	Z50	X51	Y51	Z51	X52	Y52	Z52	X53	Y53	Z53	X54	Y54	Z54
253	1.050000	495.169586	1162.750854	-359.008636	386.642975	1160.193604	-355.374237	555.068237	1105.033081	-562.815369	315.807373	1100.658203	-560.486633	637.313538	1023.903442	-454.064209	639.610291	836.290161	-464.102539	627.653870	819.106140	-521.230469	629.942688	753.435974	-478.712036	606.766052	737.069031	-529.924744	609.285828	552.689819	-459.672791	483.590424	538.630737	-449.427917	612.989258	307.670319	-361.914124	615.036194	287.976776	-420.242188	611.410461	249.793365	-372.886505	600.409912	231.821030	-428.839111	605.358765	114.874191	-359.673767	521.983826	124.261131	-404.559967	560.307556	95.807091	-304.992706	528.690613	58.445450	-314.522919	592.901428	59.093071	-308.905457	517.390686	76.406700	-380.887634	618.234070	72.317757	-367.271820	530.486267	94.550407	-438.586090	537.035950	78.125664	-469.638947	586.285400	101.729301	-477.667908	632.167053	47.723747	-410.305573	537.329041	50.582169	-527.491150	592.020630	65.565750	-537.705994	648.280457	42.227013	-490.599945	582.663147	53.041931	-596.983826	244.706421	1012.885864	-448.523193	239.122910	830.944153	-446.925018	242.207779	813.496826	-505.066925	243.120529	746.253723	-459.922028	263.050812	730.830017	-515.676453	265.636322	564.160889	-443.689026	396.679169	553.645874	-444.761566	257.556641	300.594910	-355.481537	251.377808	279.375916	-403.977753	257.294830	245.226700	-368.585297	267.549683	225.783859	-420.683502	259.452576	115.613075	-363.493530	349.444946	123.845818	-401.050232	306.756348	95.116966	-303.516357	275.893219	58.509323	-303.670288	334.249481	56.702675	-308.120972	344.687164	55.061867	-530.768372	229.690872	41.475479	-493.022095	523.630781	1041.715118	-481.133834	351.121742	1038.560795	-479.454797	546.438126	545.660278	-454.550354	331.157745	558.903381	-444.225296	563.671295	119.567661	-382.116867	304.448761	119.729446	-382.271881
254	1.054167	495.166016	1162.767822	-359.039429	386.646881	1160.189331	-355.399536	555.051514	1105.016235	-562.826172	315.836395	1100.643799	-560.496338	637.319275	1023.898193	-454.092438	639.595764	836.271545	-464.129547	627.662231	819.100220	-521.234131	629.931396	753.429504	-478.732208	606.767273	737.036621	-529.951111	609.298767	552.697021	-459.696960	483.583160	538.630981	-449.444733	613.005188	307.692535	-361.929871	615.090271	288.007050	-420.262421	611.409668	249.793655	-372.869934	600.425903	231.850769	-428.843811	605.320251	114.916595	-359.622131	521.991821	124.263763	-404.570801	560.322449	95.801582	-304.984711	528.729553	58.468369	-314.517151	592.901245	59.107903	-308.902588	517.411255	76.417389	-380.853333	618.231934	72.303383	-367.297150	530.502808	94.538353	-438.583313	537.045044	78.098160	-469.617065	586.260376	101.711838	-477.674225	632.209412	47.722176	-410.321075	537.278320	50.711239	-527.442810	592.020935	65.573967	-537.690674	648.277710	42.212276	-490.620361	582.644226	53.042912	-596.985352	244.726517	1012.901733	-448.534698	239.139114	830.927368	-446.924164	242.214035	813.489075	-505.082947	243.165207	746.272217	-459.917267	263.003540	730.699768	-515.664612	265.667633	564.155396	-443.696075	396.674774	553.686890	-444.749603	257.582336	300.582428	-355.499969	251.374695	279.383820	-404.004974	257.316437	245.226959	-368.614624	267.557983	225.793640	-420.714142	259.454193	115.586639	-363.500671	349.455963	123.843155	-401.049225	306.734924	95.107491	-303.512024	275.898865	58.515488	-303.679199	334.244293	56.699944	-308.111237	344.677765	55.092033	-530.779724	229.704971	41.437984	-493.033356	523.621541	1041.721104	-481.143147	351.142693	1038.568490	-479.463291	546.440964	545.664001	-454.570847	331.171204	558.921143	-444.222839	563.656036	119.590179	-382.096466	304.455078	119.714897	-382.274948
255	1.058333	495.178406	1162.771606	-359.038025	386.670685	1160.200806	-355.411896	555.035034	1105.014160	-562.862610	315.829132	1100.670654	-560.515869	637.291504	1023.892090	-454.122070	639.629700	836.277161	-464.133636	627.658997	819.076538	-521.252686	629.926697	753.418640	-478.732239	606.756409	737.038635	-529.986938	609.292480	552.689148	-459.697540	483.578186	538.617981	-449.461365	612.997742	307.663849	-361.952393	615.065979	288.017792	-420.267181	611.410278	249.816071	-372.878448	600.423401	231.831528	-428.867096	605.341797	114.906517	-359.655273	521.986572	124.258308	-404.561066	560.335327	95.809311	-305.005402	528.720703	58.447563	-314.523041	592.887695	59.083199	-308.907013	517.409973	76.390930	-380.865326	618.229431	72.288300	-367.296997	530.476440	94.513474	-438.583130	537.016357	78.135506	-469.619324	586.283997	101.731499	-477.669128	632.128967	47.705990	-410.319550	537.261719	50.592422	-527.479309	591.989990	65.592949	-537.682251	648.276672	42.212925	-490.610718	582.654907	53.040665	-596.987305	244.724670	1012.875671	-448.584442	239.146698	830.925476	-446.932068	242.239502	813.488892	-505.088196	243.199066	746.206116	-459.928955	263.038269	730.795288	-515.682556	265.677521	564.154663	-443.727570	396.676147	553.679016	-444.789856	257.558990	300.568329	-355.506012	251.387268	279.383362	-403.998413	257.336578	245.243561	-368.611053	267.543732	225.840622	-420.694214	259.462524	115.580139	-363.515625	349.456757	123.838127	-401.041016	306.744019	95.145432	-303.487183	275.888733	58.525333	-303.691681	334.232361	56.696369	-308.127411	344.681824	55.073551	-530.776550	229.707230	41.454441	-493.045715	523.604893	1041.723008	-481.176362	351.132106	1038.591244	-479.484310	546.435333	545.653564	-454.579453	331.176834	558.916840	-444.258713	563.664185	119.582413	-382.108170	304.459641	119.709133	-382.278320
256	1.062500	495.184692	1162.754517	-359.067078	386.657257	1160.191406	-355.431610	555.042419	1105.009277	-562.862061	315.843323	1100.646729	-560.539917	637.321350	1023.896423	-454.137787	639.595032	836.276978	-464.156281	627.672729	819.112915	-521.293701	629.957458	753.408630	-478.776703	606.812805	737.044983	-529.975708	609.285645	552.676819	-459.735321	483.572235	538.617371	-449.467010	613.002930	307.665344	-361.963226	615.078857	287.998444	-420.270325	611.397949	249.825058	-372.904022	600.413879	231.836304	-428.869781	605.353943	114.860207	-359.731506	521.990906	124.276047	-404.577698	560.312317	95.824150	-305.003815	528.719482	58.465244	-314.520508	592.888733	59.100651	-308.891449	517.416931	76.391541	-380.856537	618.203613	72.285133	-367.293396	530.496155	94.548004	-438.589935	537.017822	78.120583	-469.597656	586.276367	101.712318	-477.677612	632.224792	47.758472	-410.309113	537.264526	50.578831	-527.465088	591.985046	65.573135	-537.700867	648.309875	42.249180	-490.615143	582.630554	53.014805	-596.982178	244.719620	1012.858704	-448.624603	239.132843	830.919128	-446.943634	242.232407	813.489685	-505.103882	243.138382	746.265930	-459.957367	263.016846	730.762756	-515.704895	265.666718	564.159180	-443.746307	396.664581	553.677795	-444.811432	257.571960	300.590332	-355.494080	251.377060	279.377136	-404.008026	257.327240	245.239059	-368.622833	267.559509	225.801987	-420.750977	259.452789	115.611374	-363.508728	349.479401	123.853851	-401.048645	306.742340	95.132683	-303.529510	275.898590	58.511051	-303.673889	334.240509	56.684597	-308.111603	344.669464	55.043297	-530.773682	229.687546	41.483227	-493.056610	523.610040	1041.718320	-481.181206	351.141751	1038.572818	-479.506885	546.428940	545.647095	-454.601166	331.165649	558.918488	-444.278870	563.672424	119.568127	-382.154602	304.466095	119.732613	-382.278687
